<svg width="228" height="68" viewBox="0 0 228 68" fill="none" xmlns="http://www.w3.org/2000/svg">
<path d="M61 7L7 61M34 7L7 34M61 34L34 61" stroke="white" stroke-width="10" stroke-linecap="round"/>
<path d="M5.5 12L12.5 5" stroke="white" stroke-width="10" stroke-linecap="round"/>
<path d="M56 63L63 56" stroke="white" stroke-width="10" stroke-linecap="round"/>
<path d="M95.8277 53.7385C92.7754 53.7385 90.1826 53.0656 88.0492 51.72C85.9159 50.3744 84.2913 48.3723 83.1754 45.7138C82.0595 43.0554 81.5015 39.7897 81.5015 35.9169C81.5015 32.1754 82.1826 28.9754 83.5446 26.3169C84.9067 23.6421 86.7446 21.6236 89.0585 20.2615C91.3723 18.8995 93.9405 18.2185 96.7631 18.2185C99.0441 18.2185 100.997 18.5631 102.622 19.2523C104.263 19.9251 105.797 20.9262 107.225 22.2554L103.557 26.0215C102.507 25.0862 101.465 24.3969 100.431 23.9538C99.4133 23.5108 98.281 23.2892 97.0338 23.2892C95.3928 23.2892 93.9323 23.7241 92.6523 24.5938C91.3887 25.4472 90.3795 26.8174 89.6246 28.7046C88.8862 30.5918 88.5169 33.0123 88.5169 35.9662C88.5169 39.0185 88.7877 41.48 89.3292 43.3508C89.8708 45.2051 90.6913 46.5508 91.7908 47.3877C92.8903 48.2246 94.2933 48.6431 96 48.6431C97.8051 48.6431 99.479 48.2328 101.022 47.4123V38.7231H95.9015L95.2123 33.8H107.446V50.4646C105.69 51.5149 103.869 52.3272 101.982 52.9015C100.111 53.4595 98.0595 53.7385 95.8277 53.7385ZM135.894 53H114.848V18.9569H121.593V47.5354H136.608L135.894 53ZM161.462 53L159.346 45.1969H148.146L146.029 53H139.062L149.721 18.9569H157.992L168.626 53H161.462ZM153.733 24.0031L149.352 40.1508H158.09L153.733 24.0031ZM196.015 43.2277C196.015 45.2954 195.482 47.1251 194.415 48.7169C193.349 50.2923 191.806 51.5231 189.788 52.4092C187.786 53.2954 185.406 53.7385 182.649 53.7385C177.25 53.7385 172.942 52.1713 169.726 49.0369L173.271 45.0738C175.88 47.4205 178.973 48.5938 182.551 48.5938C184.438 48.5938 185.98 48.1672 187.178 47.3138C188.393 46.4441 189 45.2297 189 43.6708C189 42.719 188.803 41.9313 188.409 41.3077C188.015 40.6677 187.342 40.1015 186.391 39.6092C185.455 39.1005 184.118 38.5836 182.378 38.0585C179.802 37.2708 177.71 36.4174 176.101 35.4985C174.51 34.5631 173.32 33.4636 172.532 32.2C171.761 30.9364 171.375 29.4349 171.375 27.6954C171.375 25.7918 171.909 24.1262 172.975 22.6985C174.042 21.2544 175.502 20.1467 177.357 19.3754C179.211 18.6041 181.287 18.2185 183.585 18.2185C186.046 18.2185 188.237 18.5795 190.157 19.3015C192.093 20.0072 193.816 21.0492 195.326 22.4277L191.954 26.2431C190.805 25.2585 189.558 24.5282 188.212 24.0523C186.867 23.56 185.48 23.3138 184.052 23.3138C182.346 23.3138 180.967 23.6585 179.917 24.3477C178.867 25.0205 178.341 25.9887 178.341 27.2523C178.341 28.0728 178.563 28.7621 179.006 29.32C179.466 29.8779 180.22 30.3949 181.271 30.8708C182.321 31.3467 183.855 31.8964 185.874 32.52C188.073 33.1928 189.902 33.9559 191.363 34.8092C192.823 35.6626 193.964 36.7703 194.785 38.1323C195.605 39.4944 196.015 41.1928 196.015 43.2277ZM225.547 43.2277C225.547 45.2954 225.013 47.1251 223.947 48.7169C222.88 50.2923 221.337 51.5231 219.319 52.4092C217.317 53.2954 214.937 53.7385 212.18 53.7385C206.781 53.7385 202.474 52.1713 199.257 49.0369L202.802 45.0738C205.411 47.4205 208.504 48.5938 212.082 48.5938C213.969 48.5938 215.512 48.1672 216.71 47.3138C217.924 46.4441 218.531 45.2297 218.531 43.6708C218.531 42.719 218.334 41.9313 217.94 41.3077C217.547 40.6677 216.874 40.1015 215.922 39.6092C214.987 39.1005 213.649 38.5836 211.91 38.0585C209.333 37.2708 207.241 36.4174 205.633 35.4985C204.041 34.5631 202.851 33.4636 202.063 32.2C201.292 30.9364 200.907 29.4349 200.907 27.6954C200.907 25.7918 201.44 24.1262 202.507 22.6985C203.573 21.2544 205.034 20.1467 206.888 19.3754C208.742 18.6041 210.818 18.2185 213.116 18.2185C215.577 18.2185 217.768 18.5795 219.688 19.3015C221.624 20.0072 223.348 21.0492 224.857 22.4277L221.485 26.2431C220.336 25.2585 219.089 24.5282 217.743 24.0523C216.398 23.56 215.011 23.3138 213.583 23.3138C211.877 23.3138 210.498 23.6585 209.448 24.3477C208.398 25.0205 207.873 25.9887 207.873 27.2523C207.873 28.0728 208.094 28.7621 208.537 29.32C208.997 29.8779 209.752 30.3949 210.802 30.8708C211.852 31.3467 213.387 31.8964 215.405 32.52C217.604 33.1928 219.434 33.9559 220.894 34.8092C222.355 35.6626 223.495 36.7703 224.316 38.1323C225.136 39.4944 225.547 41.1928 225.547 43.2277Z" fill="white"/>
</svg>
